<?xml version="1.0" standalone="no"?>
<!DOCTYPE svg PUBLIC "-//W3C//DTD SVG 20010904//EN"
 "http://www.w3.org/TR/2001/REC-SVG-20010904/DTD/svg10.dtd">
<svg version="1.0" xmlns="http://www.w3.org/2000/svg"
 width="1080.000000pt" height="1080.000000pt" viewBox="0 0 1080.000000 1080.000000"
 preserveAspectRatio="xMidYMid meet">

<g transform="translate(0.000000,1080.000000) scale(0.100000,-0.100000)"
fill="#000000" stroke="none">
<path d="M5234 8541 c-27 -10 -65 -26 -84 -36 -56 -29 -138 -114 -164 -170
-24 -53 -79 -105 -109 -105 -21 0 -22 -33 -2 -50 13 -10 19 -9 38 6 65 54 90
83 111 130 48 105 172 189 297 200 158 15 290 -60 362 -205 29 -59 32 -73 31
-155 0 -73 -4 -99 -22 -132 -25 -49 -91 -132 -183 -232 -116 -127 -114 -117
-117 -469 l-3 -302 -35 -30 c-18 -17 -34 -34 -34 -39 0 -5 -37 -17 -82 -27
-196 -42 -330 -128 -525 -337 -105 -112 -184 -188 -228 -218 -79 -54 -250
-132 -450 -203 -89 -32 -241 -85 -280 -98 -500 -164 -940 -316 -1006 -348 -47
-22 -114 -59 -149 -82 -84 -55 -249 -128 -307 -136 -40 -5 -45 -4 -41 13 2 11
36 35 93 64 57 28 91 52 93 63 5 25 -12 20 -164 -53 -292 -139 -469 -299 -529
-479 -37 -113 -17 -201 46 -201 23 0 40 16 107 103 133 173 282 300 436 371
69 33 341 124 476 160 52 13 178 48 280 76 102 29 194 54 205 57 11 3 29 8 40
13 11 5 45 15 75 24 30 8 100 28 155 44 55 16 127 37 160 46 173 47 218 59
305 82 112 30 145 40 350 106 171 55 273 96 461 187 236 114 472 165 651 142
194 -26 336 -70 519 -162 179 -89 427 -181 639 -237 191 -51 606 -167 710
-199 63 -19 138 -41 165 -48 28 -8 109 -30 180 -50 149 -43 169 -48 245 -68
66 -17 191 -55 315 -95 243 -78 363 -149 515 -301 58 -58 123 -133 145 -166
46 -71 61 -84 97 -85 35 0 61 37 60 88 -3 216 -203 435 -549 599 -115 55 -173
73 -173 55 0 -16 27 -35 114 -77 115 -57 107 -96 -12 -59 -61 18 -207 87 -232
109 -26 23 -154 93 -221 120 -35 14 -278 98 -539 185 -770 257 -869 293 -1055
388 -109 55 -112 58 -315 262 -178 179 -216 212 -290 253 -84 46 -172 80 -240
91 -24 4 -52 22 -83 51 l-47 44 0 292 0 291 30 62 c17 36 62 97 111 150 106
116 153 189 169 265 53 251 -143 483 -405 480 -33 0 -83 -9 -111 -18z"/>
<path d="M5367 6193 c-25 -38 -62 -85 -81 -107 l-36 -39 0 -99 0 -99 53 41
c30 22 57 40 62 40 4 0 4 -16 0 -36 -10 -55 8 -34 42 48 59 143 67 185 28 148
l-25 -23 7 96 c3 54 4 97 1 97 -3 0 -26 -30 -51 -67z"/>
<path d="M5530 6005 c0 -18 -60 -139 -98 -199 -14 -23 -44 -60 -66 -83 l-40
-43 42 0 43 0 -32 -47 c-17 -27 -52 -69 -78 -95 -25 -27 -43 -48 -39 -48 26 0
223 99 310 157 62 41 67 47 62 71 -10 39 -21 48 -41 30 -39 -33 -46 -29 -10 7
36 36 37 40 37 106 0 37 -4 71 -10 74 -5 3 -10 -2 -10 -12 0 -10 -9 -31 -20
-48 l-20 -30 0 41 c0 62 -12 134 -21 134 -5 0 -9 -7 -9 -15z"/>
<path d="M5155 5908 c-11 -18 -31 -52 -44 -76 -34 -61 -70 -96 -211 -209 -184
-147 -190 -154 -190 -195 0 -53 31 -63 156 -48 122 15 282 55 308 78 21 19
106 128 106 136 0 8 -80 -22 -142 -54 -59 -31 -138 -50 -138 -33 0 5 15 27 33
49 113 135 171 254 165 336 -4 52 -17 57 -43 16z"/>
<path d="M2598 5135 c-82 -22 -141 -57 -203 -119 -113 -114 -171 -284 -163
-481 5 -118 22 -174 75 -243 31 -41 103 -88 158 -104 80 -22 304 -5 396 30 29
12 33 25 45 185 l6 87 -50 0 -50 0 -22 -90 c-28 -113 -42 -125 -152 -125 -62
0 -82 4 -105 21 -73 54 -100 156 -89 334 13 201 55 325 129 385 37 28 44 30
125 30 64 0 96 -5 120 -18 31 -17 32 -19 32 -87 0 -60 3 -70 18 -71 9 0 30 -2
45 -3 15 -1 32 3 36 9 13 16 43 237 34 245 -29 28 -301 38 -385 15z"/>
<path d="M8037 5136 c-127 -37 -197 -127 -197 -254 0 -88 25 -127 177 -270 74
-70 144 -144 154 -164 59 -116 -27 -199 -175 -168 -86 18 -97 32 -107 131 -4
46 -8 85 -8 87 -1 1 -23 2 -50 2 -48 0 -48 0 -54 -37 -3 -21 -9 -73 -13 -115
-4 -43 -10 -78 -13 -78 -3 0 -22 5 -41 10 -34 9 -38 15 -90 142 -36 90 -64
144 -86 166 -28 28 -30 34 -16 38 93 28 152 76 191 156 56 112 35 250 -47 305
-53 35 -120 43 -352 43 l-220 0 0 -24 c0 -13 -3 -31 -6 -39 -4 -11 8 -18 45
-27 28 -7 51 -17 51 -24 0 -6 -22 -171 -50 -366 -27 -195 -50 -356 -50 -357 0
0 -23 -4 -50 -8 -53 -7 -50 -4 -65 -77 -3 -17 12 -18 194 -18 l198 0 -1 37
c-1 33 -4 37 -41 48 -25 7 -39 17 -38 26 13 115 37 267 43 278 17 31 56 -35
113 -189 32 -85 65 -164 73 -175 13 -18 29 -20 134 -23 104 -3 120 -2 120 12
0 21 12 20 90 -5 89 -28 224 -31 302 -5 68 22 128 71 165 133 30 52 43 168 24
224 -18 54 -88 137 -200 239 -122 112 -148 152 -131 205 6 19 20 40 30 45 28
15 131 12 182 -6 l46 -15 6 -80 7 -79 48 0 c48 0 48 0 54 38 4 20 9 78 13 129
l7 91 -39 11 c-64 19 -272 23 -327 7z m-543 -117 c42 -20 60 -66 54 -148 -6
-80 -34 -132 -88 -164 -35 -21 -130 -35 -130 -19 0 15 39 292 45 320 5 19 12
22 50 22 24 0 55 -5 69 -11z"/>
<path d="M3100 5090 c0 -39 1 -40 45 -51 36 -9 45 -16 45 -33 0 -23 -86 -645
-96 -688 -4 -23 -12 -27 -54 -33 -43 -6 -48 -9 -54 -37 -12 -62 -34 -58 312
-58 l318 0 13 113 c6 61 15 120 17 130 5 16 0 18 -47 15 l-52 -3 -25 -75 c-14
-41 -26 -77 -28 -79 -4 -5 -197 -1 -202 4 -4 3 78 609 95 703 5 28 10 33 45
38 49 8 68 27 68 65 l0 29 -200 0 -200 0 0 -40z"/>
<path d="M3764 5094 c-8 -41 0 -50 58 -59 32 -6 37 -10 33 -28 -17 -78 -67
-488 -68 -562 -2 -115 23 -173 92 -216 64 -41 111 -52 222 -51 201 2 299 75
354 266 9 32 34 176 54 319 l37 262 48 12 c27 7 49 13 51 15 1 2 5 20 9 41 l7
37 -164 0 -165 0 -7 -36 c-7 -42 -1 -49 56 -58 22 -3 39 -8 39 -11 0 -33 -83
-554 -94 -591 -36 -116 -91 -159 -204 -159 -71 0 -74 1 -106 36 -56 61 -55 95
9 529 14 91 25 170 25 176 0 6 25 16 55 23 l55 12 0 40 0 39 -195 0 -194 0 -7
-36z"/>
<path d="M4717 5123 c-4 -3 -7 -21 -7 -39 0 -31 3 -34 48 -46 30 -9 46 -19 45
-29 -1 -8 -18 -133 -38 -279 -20 -146 -42 -303 -49 -350 l-11 -85 -50 -9 c-28
-5 -51 -9 -51 -10 -1 0 -5 -20 -9 -44 l-7 -44 243 5 c144 2 264 9 292 16 111
29 191 117 207 229 15 105 -19 182 -97 224 l-41 22 36 16 c144 64 188 300 71
377 -65 43 -133 53 -365 53 -116 0 -214 -3 -217 -7z m413 -108 c16 -8 34 -25
41 -36 14 -27 14 -110 -1 -154 -20 -61 -94 -105 -177 -105 -39 0 -39 -7 -13
165 11 72 20 133 20 138 0 13 100 7 130 -8z m-65 -406 c56 -24 75 -59 75 -140
0 -123 -55 -183 -167 -184 -34 0 -64 3 -68 7 -4 3 3 81 16 173 l22 166 51 -7
c28 -3 60 -10 71 -15z"/>
<path d="M5516 5114 c-17 -44 -7 -62 42 -76 44 -13 47 -16 44 -43 -2 -17 -24
-181 -50 -364 l-47 -335 -50 -10 c-40 -9 -50 -16 -56 -36 -18 -64 -30 -60 205
-60 154 0 235 4 288 15 160 34 237 122 240 274 2 88 -29 146 -96 181 l-44 24
41 19 c80 35 130 123 131 227 1 77 -21 124 -73 154 -63 36 -136 46 -357 46
-184 0 -213 -2 -218 -16z m421 -104 c41 -25 56 -73 42 -144 -16 -89 -67 -133
-164 -143 -43 -5 -55 -3 -55 8 0 8 9 75 20 149 11 74 20 138 20 143 0 16 105
7 137 -13z m-59 -407 c18 -9 40 -29 48 -46 23 -43 20 -135 -5 -191 -26 -61
-88 -92 -164 -83 -27 4 -52 8 -54 11 -3 2 5 79 18 171 l22 166 51 -6 c28 -4
66 -14 84 -22z"/>
<path d="M6316 5114 c-16 -41 -7 -63 32 -73 20 -6 42 -11 49 -11 13 0 16 31
-46 -410 l-46 -324 -45 -9 c-54 -11 -56 -12 -63 -59 l-6 -38 338 0 338 0 12
108 c7 59 15 117 18 130 5 20 2 22 -40 22 l-46 0 -20 -55 c-11 -30 -23 -66
-27 -80 l-7 -27 -122 4 c-68 2 -125 5 -128 8 -3 3 5 77 17 165 l22 160 87 3
87 3 0 -51 0 -50 43 0 44 0 17 137 c9 75 13 140 9 144 -5 5 -24 6 -44 3 -31
-5 -37 -12 -50 -48 l-14 -41 -82 -3 c-46 -2 -83 -1 -83 2 0 41 45 293 53 298
7 4 60 8 120 8 78 0 107 -3 108 -12 0 -7 2 -44 2 -83 l2 -70 43 -1 c23 -1 45
2 47 6 3 4 11 52 20 106 8 55 18 111 21 127 l6 27 -330 0 c-292 0 -331 -2
-336 -16z"/>
<path d="M4455 3825 c-22 -8 -41 -15 -42 -15 -10 -1 -33 -66 -33 -94 0 -30 10
-44 69 -102 80 -77 94 -109 60 -137 -16 -13 -32 -17 -53 -13 -42 9 -56 24 -56
62 0 29 -3 34 -24 34 -21 0 -24 -6 -29 -51 -4 -29 -4 -55 -2 -60 9 -13 114
-31 145 -24 67 15 115 85 102 151 -3 18 -31 54 -74 96 -52 51 -69 74 -66 90 3
20 9 23 53 23 50 0 50 0 55 -35 4 -27 10 -35 25 -35 16 0 21 9 27 50 4 27 4
53 0 56 -17 16 -118 18 -157 4z"/>
<path d="M5106 3830 c-83 -25 -142 -108 -153 -214 -12 -119 48 -191 157 -190
65 1 108 21 148 69 37 46 52 96 52 176 0 80 -23 122 -83 149 -45 21 -75 23
-121 10z m89 -55 c22 -21 25 -33 25 -100 0 -160 -43 -225 -132 -202 -38 10
-52 61 -44 154 8 96 27 140 68 158 46 20 55 19 83 -10z"/>
<path d="M4638 3778 c-5 -63 -7 -55 16 -60 16 -2 22 5 29 35 8 34 12 37 43 37
l34 0 -7 -47 c-31 -241 -37 -268 -60 -271 -15 -2 -23 -10 -23 -23 0 -17 8 -19
85 -19 78 0 85 2 85 20 0 13 -7 20 -20 20 -11 0 -20 6 -20 13 0 7 9 78 20 157
11 79 20 145 20 147 0 2 14 3 30 3 28 0 30 -3 30 -34 0 -73 44 -51 54 27 l6
47 -159 0 -159 0 -4 -52z"/>
<path d="M5378 3824 c-15 -14 -8 -34 12 -34 24 0 25 -6 5 -152 -22 -161 -24
-168 -45 -168 -10 0 -20 -9 -23 -20 -5 -19 0 -20 79 -20 66 0 84 3 84 14 0 8
-9 18 -20 21 -13 4 -19 13 -16 23 3 9 8 39 12 65 8 59 20 51 54 -38 13 -33 28
-66 33 -72 7 -10 59 -13 198 -13 173 0 189 1 189 18 0 9 3 34 6 55 6 32 4 37
-13 37 -13 0 -23 -11 -32 -35 -12 -34 -14 -35 -62 -35 l-49 0 1 43 c2 80 11
101 42 100 45 -2 47 -2 47 -17 0 -25 29 -27 34 -3 16 77 15 97 -4 97 -11 0
-23 -7 -27 -15 -5 -8 -24 -17 -42 -19 l-33 -4 7 52 c11 76 18 86 70 86 45 0
45 0 45 -34 0 -36 15 -55 31 -39 5 5 12 33 16 62 l6 52 -139 -3 c-123 -3 -139
-5 -142 -20 -2 -13 3 -18 17 -18 15 0 21 -6 21 -22 0 -35 -37 -289 -43 -294
-11 -11 -71 -6 -75 6 -3 7 -19 41 -37 76 -21 43 -27 64 -18 64 7 0 27 13 44
28 44 40 52 106 16 147 -24 29 -28 30 -133 33 -60 2 -112 0 -116 -4z m177 -54
c36 -40 -3 -130 -57 -130 -19 0 -20 4 -14 58 4 31 9 65 12 75 7 23 37 22 59
-3z"/>
</g>
</svg>
